<svg xmlns="http://www.w3.org/2000/svg" viewBox="0 0 1008 1008"><path fill="currentColor" d="M675 63l318 315q28 24 16 62-28 95-108 175-67 64-199 141.5T517 885t-77 123q-3 11-17 27-17 13-30 16-37 11-61-15L17 721q-27-27-16-62 28-94 108-175 57-58 199-142t185-128q51-50 75-123 3-11 17-27 17-13 30-16 36-10 60 15zM281 892l100 99q43.756-144.94 247-263.5 18-10.5 57-32.5t49-28q74-42 133-106t82-139L634 107q-31 110-144 195-52.843 41.355-123.42 80.678T280 432q-77 44-134.5 108T66 675zm301-604h2q30-30 43-49l20-28q4-4 5-4 13-11 20 0 12 11 2 22l-21 30q-15 19-48 52t-56 50q-11 11-23-2-7-10-2.5-17t20.5-19.5 38-34.5zM428 475v-1q-27 40-6 54 19 19 56-2zm103 80l53 57q25-25 10-52-16-27-50-11-1 1-13 6zm62 101q-30 30-69 30-20-1-34-10.5T472 653q-6-11-1-20.5t13.5-9.5 13.5 2.5q11.5 5.75 28.75 13.625T565 629q-9-9-57-63-27 14-65 19-29 2-51-15-14-12-20-27.5-9.66-24.958 6-61.5 10-18 21-31 0-4.5-6-6-11-5-1.5-17.5t16.5-.5l7 6q21-21 52.5-28t51.5 14q8 8 8 18t-7 15.5-12 4.5-11-1.5-11-2.5q-21-12-43 6 27 27 51 58 18.472-11.755 39.736-16.377T558 494l-2 2q34-4 63 19 15 11 20 28t2 29q0 14-11 36.5T608 643l16 13q11 7 1.5 17.5T608 673q-12-12-15-17zm-127 90q11-10 22 1t-1 23h-2q-65.13 50.883-96 96l-20 28q-10.724 16.086-25 3-11-8-3-19l21-30q15-19 49-53 17-19 55-49z"/></svg>
