<svg xmlns="http://www.w3.org/2000/svg" viewBox="0 0 1008 1008"><path fill="currentColor" d="M247 201v151h504V201H247zm405 555l-2-1q-26 0-44 15t-18 33 9 30q18 25 49.5 25t49.5-15 18-36-18-36-44-15zm-63-252q0 21 18 36t44 15 44-15 18-36-18-36-44-15-44 15-18 36zm65 102l-2-1q-26 0-44 15t-18 33 9 30q18 25 49.5 25t49.5-15 18-36-18-36-44-15zM503 757q-26 0-44 15t-18 36 18 36 44 15 44-15 18-36-18-36-44-15zm-63-252q0 21 18 36t44 15 44-15 18-36-18-36-44-15-44 15-18 36zm63 101q-26 0-44 15t-18 36 18 36 44 15 44-15 18-36-18-36-44-15zM352 757q-26 0-44 15t-18 36 18 36 44 15 44-15 18-36-18-36-44-15zm-63-252q0 21 18 36t44 15 44-15 18-36-18-36-44-15-44 15-18 36zm108 115v1q-18-15-39-15t-36 6q-31 15-31 40t18 40 44 15 44-15 18-36-18-36zM272 50h464v1q29 0 50 21t21 50v766q0 40-35 61-16.5 9-36 9H272q-29 0-50-21t-21-50V121q0-29 21-50t50-21z"/></svg>
