<svg xmlns="http://www.w3.org/2000/svg" viewBox="0 0 1008 1008"><path fill="currentColor" d="M588 803q0 53-36.5 89.5T462 929H126q-54 0-90-36.5T0 803V299q0-54 36-90t90-36h336q53 0 89.5 36t36.5 90v504zm-84-504q0-20-11.5-31.5T462 256H126q-19 0-30.5 11.5T84 299v504q0 19 11.5 30.5T126 845h336q19 0 30.5-11.5T504 803V299zM126 425V299h336v126H126zm42-43h252v-41H168v41zm0 169q-42 0-42-42t42-42 42 42-42 42zm126 0q-42 0-42-42t42-42 42 42-42 42zm126 0q-42 0-42-42t42-42 42 42-42 42zM168 677q-42 0-42-42t42-42 42 42-42 42zm126 0q-42 0-42-42t42-42 42 42-42 42zm126 0q-42 0-42-42t42-42 42 42-42 42zM168 803q-42 0-42-42t42-42 42 42-42 42zm126 0q-42 0-42-42t42-42 42 42-42 42zm126 0q-42 0-42-42t42-42 42 42-42 42z"/></svg>
