<svg xmlns="http://www.w3.org/2000/svg" viewBox="0 0 1008 1008"><path fill="currentColor" d="M788 139h135q36 0 60.5 25t24.5 60v744q0 36-24.5 60.5T923 1053H85q-36 0-60.5-24.5T0 968V224q0-35 24.5-60T85 139h136V76q0-14 9.5-22.5t22-8.5 22 8.5T284 76v63h189V76q0-14 9.5-22.5t22-8.5 22 8.5T536 76v63h189V76q0-14 9.5-22.5t22-8.5 22 8.5T788 76v63zm135 851q22 0 22-22V224q0-22-22-22H788v63q0 15-9.5 23.5t-22 8.5-22-8.5T725 265v-63H536v63q0 15-9.5 23.5t-22 8.5-22-8.5T473 265v-63H284v63q0 15-9.5 23.5t-22 8.5-22-8.5T221 265v-63H85q-22 0-22 22v744q0 22 22 22h838zM662 423h126v94H662v-94zm-221 0h126v94H441v-94zm-220 0h126v94H221v-94zm441 157h126v95H662v-95zm-221 0h126v95H441v-95zm-220 0h126v95H221v-95zm441 158h126v94H662v-94zm-221 0h126v94H441v-94zm-220 0h126v94H221v-94z"/></svg>
