<svg xmlns="http://www.w3.org/2000/svg" viewBox="0 0 1008 1008"><path fill="currentColor" d="M349 914l-25-3q-168-17-310-98l-14-9 2-16q8-97 57-179t130-135q-50-72-50-157 1-112 81-192t193-80q90 0 162 53t98 139l9 29-28 7q-79 17-131.5 82T470 492.5 502 618l13 22-20 11q-59 42-96 104.5T353 889zm-44-59q30-142 140-233-28-63-28-123 0-92 54-167.5T611 227q-26-59-79-94T413 98q-91 0-155 64.5t-64 151T249 464l23 24-30 16q-77 42-125.5 113T57 775q111 61 248 80zm812 107q-161 91-351.5 91T415 962l-14-9 1-16q7-83 50-155t113-117q-41-60-41-136 0-100 71-171t171-71 171 71 71 171q0 76-41 136 70 45 112.5 117t49.5 155l2 16zm-659-37q142 76 307.5 76t304.5-76q-16-113-100-188-27-25-60-42l-30-16 23-25q48-54 48-128t-55-129.5T762 341t-134 55-55 129.5T622 654l23 25-31 16q-64 35-105.5 95.5T458 925z"/></svg>
