<svg xmlns="http://www.w3.org/2000/svg" viewBox="0 0 1008 1008"><path fill="currentColor" d="M349 914l-26-3q-168-18-308-99l-15-9 1-17q8-92 90-176 69-72 160-131-10-14-41-46-70-74-70-115 0-113 80-193t194-80q83 0 159 56t100 136l9 27-29 6q-79 18-130.5 82.5T471 489t31 126l12 21-19 14q-51 37-92.5 106.5T352 888zm414.5 139Q573 1053 415 962l-15-9 2-17q10-129 219-266-8-13-36-41-63-66-63-101 0-100 71-170.5T763.5 287 934 357.5t71 170.5q0 32-58 93-33 35-43 49 211 138 221 266l2 17-15 9q-158 91-348.5 91z"/></svg>
