<svg xmlns="http://www.w3.org/2000/svg" viewBox="0 0 1008 1008"><path fill="currentColor" d="M961 176l-3 7-86 93q20 30 20 73.5T853 434L730 568q-6 65-74 95-1 0-7 2.5t-10 3.5L350 986q-27 32-85 58t-135-11T19 917Q-5 860 4 798t48-108v-2l224-246q-40 15-79 5.5T152.5 396t24.5-65q35-29 111-18-27-60-7.5-104.5t62-42.5 61 35 5.5 96l158-171 2-2q27-32 76-54.5T749.5 45 862 69t97 80l2 2v25zm-624 42q-16 8-10 40t25 56q35-96-14-96h-1zM205 393q0 4 8 6.5 13.903 4.345 38.45-2.578Q276 390 300 368q-59-10-81 0-4 0-7 3-8 5-7 22zm374-9q-4-2-8-5t-34-18q-51-21-103-13L190 614q91-16 170 23 35 18 66 51l205-227 12-12q-33-46-64-65zM146 848l-11-9v-20l5 9v-26q60-60 146-28 34 15 58 44t31 63l305-335q0-20-14-50L443 742q-9 8-12 8h-14q-1-2-3-2h-2q-8-4-8-6-33-45-81-66-80-36-173 3-29 12-52 36l-7 8q-30 35-38 84t8 100q26 60 84 88t102 9q34-17 49-32l9-10q16-22 16-47.5T304 865t-43-36q-50-22-89 17h-9q0 2-1 2h-16zm677-456q18-24 18-41t-3-37L707 457q12 24 14 32.5t3 9.5l92-101 7-5v-1zm-147 22l229-251q-32-36-76-53-83-31-166 7-31 14-57 42L481 296q24 3 48 9.5t50.5 22q61.938 36.227 96.5 86.5z"/></svg>
