<svg xmlns="http://www.w3.org/2000/svg" viewBox="0 0 1008 1008"><path fill="currentColor" d="M504 45q30 0 51 21t21 51-21 51-51 21-51-21-21-51 21-51 51-21zM72 261q30 0 51 21t21 51-21 51-51 21-51-21-21-51 21-51 51-21zm216 0q30 0 51 21t21 51-21 51-51 21-51-21-21-51 21-51 51-21zm216 0q30 0 51 21t21 51-21 51-51 21-51-21-21-51 21-51 51-21zm216 0q30 0 51 21t21 51-21 51-51 21-51-21-21-51 21-51 51-21zM72 477q30 0 51 21t21 51-21 51-51 21-51-21-21-51 21-51 51-21zm216 0q30 0 51 21t21 51-21 51-51 21-51-21-21-51 21-51 51-21zm216 0q30 0 51 21t21 51-21 51-51 21-51-21-21-51 21-51 51-21zm216 0q30 0 51 21t21 51-21 51-51 21-51-21-21-51 21-51 51-21zm216 0q30 0 51 21t21 51-21 51-51 21-51-21-21-51 21-51 51-21zM72 693q30 0 51 21t21 51-21 51-51 21-51-21-21-51 21-51 51-21zm216 0q30 0 51 21t21 51-21 51-51 21-51-21-21-51 21-51 51-21zm216 0q30 0 51 21t21 51-21 51-51 21-51-21-21-51 21-51 51-21zm216 0q30 0 51 21t21 51-21 51-51 21-51-21-21-51 21-51 51-21zM504 909q30 0 51 21t21 51-21 51-51 21-51-21-21-51 21-51 51-21z"/></svg>
