<svg xmlns="http://www.w3.org/2000/svg" viewBox="0 0 1008 1008"><path fill="currentColor" d="M1463 45q14 0 24 10.5t12 25.5v938q0 15-11 25.5t-25 10.5H36q-14 0-25-10.5T0 1019V81q0-14 11-25t25-11h1427zM55 998h1384V100H55v898zm166-390q20-63 67-96 24-17 54-24-56-24-74-78-6-18-6-38 0-52 36.5-88.5t89-36.5 88.5 36.5 36 82-22 76.5-57 46q42 10 73.5 42.5T553 608H221zm-41 67q-18 0-31.5-13.5T135 630V223q0-19 13.5-32.5T180 177h414q20 0 33 14t13 32v407q0 19-13.5 32T594 675H180zm-7-452v407q0 7 7 7h414q7 0 7-7V223q0-7-7-7H180q-7 0-7 7zm628 99q-18 0-24.5-8.5T770 296t9-15.5 22-6.5h500q13 0 22.5 6.5t9.5 17-9.5 17.5-22.5 7H801zM147 887q-12 0-21-7t-11-17q0-11 9.5-17.5T147 839h503q12 0 21.5 7.5T681 864t-9 16.5-22 6.5H147zm654-428q-12 0-21.5-7.5T770 434t9-16.5 22-6.5h500q13 0 22.5 7.5t9.5 17-9.5 16.5-22.5 7H801zm0 137q-18 0-24.5-8.5T770 570t9-15.5 22-6.5h500q20 0 29 15 3 4 3 11.5t-9.5 14.5-22.5 7H801zm282 310q0-18 12.5-30.5T1123 863t25 6q21 12 21 33.5t-12.5 34.5-30.5 13-30.5-13-12.5-31zm129 0q0-18 13-30.5t31-12.5 30.5 12.5T1299 906t-12.5 31-30.5 13-31-13-13-31zm-26-106q0 8 3 10t4 2h157q4 8 4 53h-19q-7 0-7 10t7 10h17q-11 32-48 40 5-9 5-24.5t-17-32.5-35-17-31 7q-28 16-28 48 0 7 5 22h-27q5-15 5-29.5t-16-31-34.5-16.5-31.5 7q-28 16-28 48 0 5 4 19-16-3-29-15t-19-28h19q8 0 8-9.5t-8-9.5h-24q0-25 17.5-42.5T1083 803h9q0-21 21-46.5t42-25.5h31v69zm-19 8v-53q-21-1-34.5 12t-17.5 27l-4 14h56z"/></svg>
