<svg xmlns="http://www.w3.org/2000/svg" viewBox="0 0 1008 1008"><path fill="currentColor" d="M748 177h-1q76 52 128 128 6 7.5 6 14.75T879 333q-24 65-89 89-13 6-26-4-74-54-128-128-6-10.5-6-18.25t2-9.75q24-65 89-89 15-7 27 4zm-87 94h-1q47 67 121 120 51-18 69-68-53-72-121-121-50 18-68 69zM553 586l9-8q64 35 128 35 104 0 178-74t74-177.5-74.5-178-178-74.5T512 183t-74 178q0 64 35 128L60 900v91h89l45-45q18-18 45-18h73v-63q0-25 19-44.5t45-19.5h63v-75q0-25 18-43zM397 475h4q-22-57-22-115 0-129 92.5-222T694 45t222.5 92.5T1009 360t-93 222.5T694 675q-58 0-115-22l-75 73v75q0 25-19 44.5T440 865h-63v63q0 26-19.5 45T313 992h-73l-45 45q-18 18-39 18H61q-25 0-44.5-19.5T-3 991v-95q0-21 18-39z"/></svg>
