<svg xmlns="http://www.w3.org/2000/svg" viewBox="0 0 1008 1008"><path fill="currentColor" d="M708 1023.5q-29 11.5-114 20.5t-225 9-225.5-9T29 1023.5 0 988V476q0-24 18-41.5T61 417h615q25 0 43 17.5t18 41.5v512q0 24-29 35.5zM56 974q29 9 114 16t180 7q252.417 0 331-23V476q0-3-5-3H61q-5 0-5 3v498zm602-501V335q1-76-36-143.5t-104.5-107T374 45h-3q-77 0-144.5 39.5T122 191 86 335v138h156V334q0-69 52-108 24.25-16.167 50.5-22 13.5-3 38-3t55.5 18 48 49 16 67v138h156zm-100-56v-82q1-51-23-95t-68.5-70-94.5-26-94.5 26-68.5 70-23 95v82h-43v-83q-1-63 29-115v-1q29-52 84-84.5T371 101h2q61 0 115.5 32.5T572 218v1q31 54 30 115v83h-44z"/></svg>
