<svg xmlns="http://www.w3.org/2000/svg" viewBox="0 0 1008 1008"><path fill="currentColor" d="M1923 970l-3 73h-189q-17 0-27.5-10.5T1693 1005t10.5-27.5T1731 967h112q-9-197-99-372l-96 58q-12 10-28 6t-23-19q-10-12-6-28t19-23l96-58q-107-165-272-272l-58 96q-7 13-22 16.5t-29-3.5q-12-7-16-22t3-29l58-96q-175-90-372-99v115q0 17-10.5 27.5T960 275t-27.5-10.5T922 237V125q-197 9-372 99l58 96q10 12 6 28t-19 23q-12 10-28 6t-23-18l-58-96Q321 369 214 535l96 57q13 7 16.5 22t-3.5 28.5-22 17-29-3.5l-96-57Q86 773 77 970h112q17 0 27.5 10.5T227 1008t-10.5 28-27.5 11H0v-77q11-191 77-336 73-176 204.5-307.5T589 122q177-77 374-77t375 77q175 73 307 205 135 140 204 304.5t74 338.5zm-579-384q8-7 18-6t17 9 6 18-9 17l-317 263q13 21 13 58.5t-31.5 69.5-77 32-77.5-32-32-77.5 32-77 70.5-31.5 67.5 19zM919.5 980.5q17.5 18.5 43 18.5t43.5-17.5 18-43-17.5-43.5-42.5-18-43.5 17.5T902 937t17.5 43.5z"/></svg>
