<svg xmlns="http://www.w3.org/2000/svg" viewBox="0 0 1008 1008"><path fill="currentColor" d="M504 0q208 0 356 148t148 356-148 356-356 148-356-148T0 504t148-356T504 0zm0 936q178 0 305-127t127-305-127-305T504 72 199 199 72 504t127 305 305 127zm36-466q78 10 129 54.5T720 630t-51 105.5T540 790v74h-72v-74q-146-13-179-125l70-20q16 62 109 73V538q-78-10-129-54.5T288 378t51-105.5T468 218v-74h72v74q146 13 179 125l-70 20q-16-62-109-73v180zm-180-92q0 30 31 54.5t77 32.5V291q-46 8-77 32.5T360 378zm180 339q46-8 77-32.5t31-54.5-31-54.5-77-32.5v174z"/></svg>
