<svg xmlns="http://www.w3.org/2000/svg" viewBox="0 0 1008 1008"><path fill="currentColor" d="M385 1053q-83 0-147-8l-12-2q-67-8-82-12.5t-32.5-10-28-12-24.5-15T37 974t-20-30.5T2 881q-15-177 77-326 20-34 82-102l18 17-18-17q58-62 77-98l13-25h-4l-68-229 14-10q41-27 72-38 69-23 150 23 35 20 82 20h31l-61 233h-2l14 24q18 35 75 95t85 103q87 142 77 322-2 63-51 106-78 74-280 74zM284 376q-22 41-86 108-4 5-19.5 22T156 531q-69 80-94 191-17 71-10.5 148.5T127 971q38 12 107 20l12 1 44 5q126 10 215-4 160-26 165-124 10-163-70-293-18-29-77-95-64-67-85-108H284v3zm1-97h146l36-134q-39-5-78.5-28T316 95t-78 29zm-8 486q5 53 54 67V732q-30-8-39-12-41-18-50.5-58.5T262 588l10-10q22-17 59-23v-31h49v31q3 1 8 1 40 7 63 35t24 65l-50 4q-4-20-7-30-9-21-36-26v87q64.398 12.385 88 47 1 2 3 4 20 29 8.5 65-22.488 70.4-99.5 77v30h-49v-31q-45-8-73.5-38.5T229 768zm103 70q39-5 48-33 6-16-2-30-12-24-46-30v93zm-49-229h-3q-3 0-10 3-28 9-28 34 0 28 41 40v-77z"/></svg>
