<svg xmlns="http://www.w3.org/2000/svg" viewBox="0 0 1008 1008"><path fill="currentColor" d="M841 943q0 25-21 46.5t-59 35.5q-69 27-165 27t-171.5-29.5T349 943V822q-62 18-141 16T72 814q-33-12-52.5-32T0 740V517q0-47 72-76 58-23 138.5-25T353 433q13-41 77-67 96-37 225-24 60 6 106 24 80 32 80 83v494zM351 778v-68q-62 18-149.5 16T42 688v52q0 16 46 36 54 21 130.5 21.5T351 778zm0-113v-66q-62 19-141.5 17T72 591q-15-5-30-16v50q0 17 50 38t126.5 21.5T351 665zm0-110v-78q-57-20-132.5-18.5T88 481q-46 20-46 36 0 13 13 20 61 37 150.5 37.5T351 555zm444 82q-72 44-199.5 44T396 637v59q0 20 56 42t142.5 22T737 738.5t56-42.5q2-10 2-59zm0 123q-72 43-199.5 43T396 760v58q0 20 56 42t142.5 22T737 860.5t56-42.5q2-8 2-58zm0 124q-72 44-199.5 44T396 884v59q0 20 56 42t142.5 22T737 985.5t56-42.5q2-8 2-59zM448 489q62 24 148.5 24T745 489q1-1 9.5-4.5 40.5-16.677 40.5-36.088Q795 429 739 406.5T596.5 384 454 405.5 398 449q0 19 43 37 6 2 7 3zm347 26q-72 43-198.5 43T398 515v56q0 20 56 42t142.5 22T739 613.5t56-42.5v-56zm78 102l-60-24v-52l71 28 277-161-35-12-216 125q-17 10-31 10-2-2-6-2l-60-24v-24q11-8 14-22l57 22 275-157-209-78-227 130q-30-9-64-12l241-138-101-38-273 154v22l-40 8-165-66-38 20 153 60q-38 17-50 32l-61-24-44 24 30 13q-35-9-82-9 0-29 24-44l14-8-8-4q-14-5-22-20-10-16-3.5-33.5T255 286l6-6-2-2q-14-5-23-21t-2.5-33 21.5-26L526 51q8-6 26-6h6l625 239q14 5 26 28.5t-12 47.5q-4 4-16 10h2q14 5 26 28.5t-12 48.5q-4 4-8 6l-14 8q21 5 30 22 16 32-8 56-4 4-8 6l-14 8q21 5 30 22 16 32-8 56-4 4-8 6L910 798q-15 11-31 8-2-2-6-2l-60-24v-52l71 28 277-161-41-14-210 123q-15 11-31 8-2-2-6-2l-60-24v-53l71 28 277-158-41-14-210 122q-15 11-31 8-2-2-6-2zm-542-32l42 18v-30q-18 6-42 12zm418-416L548 93 283 238l203 82zM546 93zm2 0zm0 0zm0 0z"/></svg>
