<svg xmlns="http://www.w3.org/2000/svg" viewBox="0 0 1008 1008"><path fill="currentColor" d="M181 1053l-2-99q-38-16-84-67-8-9-11.5-12.5T78 867q-20-22-49-18l-29 2V670h24q25 0 36.5-4T77 651q14-35 43-72.5t64-62.5q-3-11-20-38.5T137 429l-13-31 32-3q142-15 207 70 70-12 148.5 3.5T643 527q2 2 8 7.5t13.5 12.5 14.5 11q18 11 64-10l19-8 41 62-25 13q-32 18-38 27.5t-3 22 3.5 14.5 1 4.5 1.5 4.5q13 71-11.5 142T655 947l1 103-177 1v-48q-34 4-70 4t-52-3v46zm23-611l1 4q36 57 31 88l-2 9-11 7q-33 20-59.5 54T122 670q-20 46-73 49v80q39 5 63 34 7 7 10 12 50 58 88 68l18 5v85h80v-56l29 5q30 7 70 7t91-12l31-8v62h80v-77l10-8q46-38 68.5-99T699 696l-2-11q-11-47 10-73-41.697 1.303-84.35-39.85T497.5 517 362 517l-17 4-10-15q-40-64-131-64zm314-325q-39-36-94-36t-94.5 37-39.5 87 39 89q38 36 93.5 36t95-37 39.5-87-39-89zm-266 91q0-68 50.5-115.5T423 45t121 46q50 47 51 114t-48 113.5T426.5 366 305 321t-53-113zm170.5-48q-15.5 0-15.5 9 0 8.667 23 16.333Q453 193 459 196q28 14 26 41-1 34-41 39-6 1-8 2l-1 21h-25v-20l-26-3q-4-1-11-3t-11-3v-36q64 24 76 9 9.488-10.844-28.5-23-19.296-6.175-35.398-18.087Q358 190 361.5 167t20.5-30q7-2 16.5-4t11.5-3l2-17h23v15l47 10-13 31-31-8-9.5-1h-6zM217 652.5q0-14.5 5.5-24.5t12-10 14 7.5T256 650t-6 27-14 10-13.5-10-5.5-24.5z"/></svg>
