<svg xmlns="http://www.w3.org/2000/svg" viewBox="0 0 1008 1008"><path fill="currentColor" d="M881 258l13 13 91 126q20 26 20 56v32q0 41-26.5 67.5T911 579v410q0 25-19.5 44.5T847 1053H154q-26 0-44.5-19T91 989V579q-41 0-68-26.5T-4 485v-32q0-30 20-56l94-126q1.43-2.857 5.714-6.43T123 258V108q0-26 19.5-45T187 44h630q25 0 44.5 19t19.5 45v150zm-65-24V108H186v126h630zm95 283v-1q13 0 22-8.5t9-22.5v-32q0-11-6-18l-94-126q-8-12-26-12h-91l126 220h60zM60 453l1 33q0 14 9 22.5t23 8.5h59l126-220h-91q-16.5 0-27 12L66 435q-6 7-6 18zm631-156h-69l63 220h132zm-102 0h-71v220h134zm-103 0h-71l-63 220h134V297zM187 517h132l63-220h-69zm473 473h189V580H156v410h204V675q0-14 9-23t23-9h236q14 0 23 9t9 23v315zm-268 0h236V675H392v315z"/></svg>
