<svg xmlns="http://www.w3.org/2000/svg" viewBox="0 0 1008 1008"><path fill="currentColor" d="M813 298q62 75 89 170.5T915 662q-24 157-144 268t-279 122.5-293.5-82T18 723Q-5 643 1 559t41-159 95-134 135-92l-39-17q-21-10-30-33t.5-44.5 32-30.5 44.5 1q68 29 203 88 25 11 33 38t-8 49L375 417q-15 21-41 24t-44-12.5-21-38 10-40.5l52-75q-72 30-125.5 89.5t-75 133.5-9 150.5 49 129.5Q271.723 924.98 437 936q107 7 199-48 120.57-72.342 155.285-206.67T760 427q-11-20-28-42t-21.5-38.5 5-35 26-27 37-5.5 34.5 19z"/></svg>
