<svg xmlns="http://www.w3.org/2000/svg" viewBox="0 0 1008 1008"><path fill="currentColor" d="M394 156.5q0-46.5 32.5-79T505 45t79 32.5 33 79-33 79-79 32.5-78.5-32.5-32.5-79zm154 792q18 17.5 18 43t-18 43.5-43 18-43-18-18-43 18-43 43-18 43 17.5zm339-374q0-14.5 10-24.5t24.5-10 24.5 10 10 24.5-10 24.5-24.5 10-24.5-10-10-24.5zm-887 0q0-36.5 25.5-62t62-25.5 62 25.5T175 568t-12 50q-25 44-76 44-36 0-61.5-25.5T0 574.5zM193 212q0-28 14-51.5t37.5-37.5 58.5-14 65 30 30 72.5-30 72.5-65 30-58.5-13.5-37.5-37-14-51.5zm469 723.5q0-21.5 15-36.5t36.5-15 36.5 15 15 33-7 30q-15 25-40.5 25T677 972t-15-36.5zM840 365q0-11 8-19t18.5-8 18.5 8 8 19-8 18.5-18.5 7.5-18.5-7.5-8-18.5zM64 782.5Q64 750 87 727t55.5-23 55.5 23 23 55.5-23 55.5-55.5 23T87 838t-23-55.5zm-17-418Q47 325 75 297t67.5-28 67.5 28 28 67.5-28 67.5-67.5 28T75 432t-28-67.5zm776 418q0-18.5 12.5-31t31-12.5 31 12.5 12.5 31-12.5 31-31 12.5-31-12.5-12.5-31zM696 212q0-7 5-12t12.5-5 12.5 5 5 12-5 12-12.5 5-12.5-5-5-12zM226 936q0-29 20.5-50t44.5-21 40 10q35 20 35 55t-20.5 55.5T296 1006t-49.5-20.5T226 936z"/></svg>
