<svg xmlns="http://www.w3.org/2000/svg" viewBox="0 0 1008 1008"><path fill="currentColor" d="M526 110l408 94q34 8 52 34.5t18 59.5-18 59.5-52 34.5l-84 19v266q0 73-87 115t-259.5 42T244 792t-87-115V411l-85-19q-34-8-52-34.5T2 298t18-59.5T72 204l409-94q22.5-4.5 45 0zm-31 313h16l409-95q24-6 24-31.5T920 265l-409-94h-16L86 265q-24 6-24 31.5T86 328zm418 31q0-14 9.5-22.5t22-8.5 22 8.5T976 454v284q0 14-9.5 22.5t-22 8.5-22-8.5T913 738V454zM716 735h1q36-14 55-30.5t16-29.5V423l-262 61q-22.5 1.5-45 0l-261-61v252q-3 13 15.5 29.5T290 735q89 34 213 34t213-34zm229 66q24 0 43.5 47.5t19.5 77-18.5 46T945 988t-44.5-16.5-18.5-46 19.5-77T945 801z"/></svg>
