<svg xmlns="http://www.w3.org/2000/svg" viewBox="0 0 1008 1008"><path fill="currentColor" d="M1153 1053h-44q-41 0-70-29t-29-70v-55H324v55q0 41-29 70t-71 29h-44q-41 0-70-29t-29-70v-55H59q-27 0-40-24-6-10-6-22v-88q0-20 14-33.5T59 718h1180q20 0 33 14t13 33v88q0 16-9.5 28t-23.5 16v57q0 41-28.5 70t-70.5 29zM260 835h818v121q0 13 10 23t23 10h44q14 0 23.5-10t9.5-23V835h33v-51H81v51h69v121q0 13 9.5 23t23.5 10h44q13 0 23-10t10-23V835zm121-713q132-11 225.5-11t207 5.5T946 122q31 20 92 127.5t84 209.5l5 22 22 4q46 9 63 62 8 25 14.5 58t1.5 99q4-16 20-16v66q7 0 14-2 28-9 37-40 5-57-1-109-17-145-112-177-21-76-63-162t-89.5-146T955 58q-17 0-97.5-6.5t-213-6.5-209 6.5T343 58q-29 0-76.5 61t-90 148T114 428Q22.3 459.742 3 604.5q-3 22.5-3 50t.5 37 2 25T17 744t31 12v-66q16 0 20 16-1-19-1-61t17-95 63-63l22-4 5-22q23-101 85.5-208T352 124zm-37.5 546.5Q313 699 269 699t-75-31-31-74.5 30.5-75T268 487t75 31 31 75.5-30.5 75zm-31-117Q295 534 273.5 534t-35.5 8q-31 17-31 47.5t17.5 49T268 657t44-18 18-44-17.5-43.5zm779 117q-30.5 30.5-74 30.5t-75-31-31.5-67 14-60.5 38.5-39T1024 487t67 31 31 75.5-30.5 75zm-31-117q-17.5-17.5-43-17.5t-44 17.5-18.5 43 18 44 43.5 18.5 43.5-18 18-44-17.5-43.5zM1054 450H251l4-13q25-84 59.5-167t59.5-91q57-20 271-20h53q204 0 235 18 26 23 93 199 22 58 22 61zm-774-22h741q-30-81-61.5-153.5T918 195q-16-16-220-16h-53q-71 0-156 4.5T381.5 197 311 336q-16 44-31 92z"/></svg>
