<svg xmlns="http://www.w3.org/2000/svg" viewBox="0 0 1008 1008"><path fill="currentColor" d="M488 45h1q201 0 345 144t144 344-144 347q-143 142-346 142T143 880 1 534t143-346.5T488 45zm-14 283V108h-2q-89 73-141 193 74 26 143 27zm173-27q-55-122-141-193h-2v220q68-1 143-27zm-453-73h-1q46 36 109 63 47-106 118-177-130 19-226 114zm590 0q-96-93-227-115 76 74 118 177 58-25 109-62zm-495 93q-66.388-30.067-118-69Q69 363 63 517h189q4-100 37-196zm437 196h189q-6-155-109-265-49 37-119 69 34 93 39 196zM505 360v156h189q-1-93-34-186-75 26-155 30zm-31-1l1 1q-80-4-155-30-33 87-35 186h189V359zm205 414q53 21 111 61 119-119 126-285H727q-1 117-48 224zM254 549l-191-1q10 168 127 285 45-32 111-60-42-104-47-224zm250 188l-2-1q74 4 145 27 42-108 46-215H504v189zm-33-1l-1-188H281q1 106 45 215 69-23 145-27zm30 32v189h2q77-65 129-167-61-17-131-22zm-161 22q51 102 129 167h2V768q-70 4-131 22zm421 65l1-1q-51-35-102-52-37 79-106 150 117-19 207-97zm-550-1v-1q90 78 206 97-65-66-106-149-68 29-100 53z"/></svg>
